<mxfile host="app.diagrams.net" modified="2022-01-17T06:04:22.240Z" agent="5.0 (Macintosh; Intel Mac OS X 10_15_7) AppleWebKit/537.36 (KHTML, like Gecko) Chrome/97.0.4692.71 Safari/537.36" etag="_FQo1zkTa2ULH3C_sh-_" version="16.0.3" type="github">
  <diagram id="_xSdwPeZEgP6pgTHCyYR" name="Page-1">
    <mxGraphModel dx="988" dy="637" grid="1" gridSize="10" guides="1" tooltips="1" connect="1" arrows="1" fold="1" page="1" pageScale="1" pageWidth="1169" pageHeight="1654" math="0" shadow="0">
      <root>
        <mxCell id="0" />
        <mxCell id="1" parent="0" />
        <mxCell id="ynbt10xVMZTp4YLYaHJ--3" value="«需求评审»&lt;br&gt;&lt;b&gt;Component&lt;/b&gt;" style="html=1;dropTarget=0;" vertex="1" parent="1">
          <mxGeometry x="270" y="140" width="180" height="90" as="geometry" />
        </mxCell>
        <mxCell id="ynbt10xVMZTp4YLYaHJ--4" value="" style="shape=module;jettyWidth=8;jettyHeight=4;" vertex="1" parent="ynbt10xVMZTp4YLYaHJ--3">
          <mxGeometry x="1" width="20" height="20" relative="1" as="geometry">
            <mxPoint x="-27" y="7" as="offset" />
          </mxGeometry>
        </mxCell>
        <mxCell id="ynbt10xVMZTp4YLYaHJ--5" value="«按需集成»&lt;br&gt;&lt;b&gt;Component&lt;/b&gt;" style="html=1;dropTarget=0;" vertex="1" parent="1">
          <mxGeometry x="630" y="140" width="180" height="90" as="geometry" />
        </mxCell>
        <mxCell id="ynbt10xVMZTp4YLYaHJ--6" value="" style="shape=module;jettyWidth=8;jettyHeight=4;" vertex="1" parent="ynbt10xVMZTp4YLYaHJ--5">
          <mxGeometry x="1" width="20" height="20" relative="1" as="geometry">
            <mxPoint x="-27" y="7" as="offset" />
          </mxGeometry>
        </mxCell>
        <mxCell id="ynbt10xVMZTp4YLYaHJ--7" value="«按需测试»&lt;br&gt;&lt;b&gt;Component&lt;/b&gt;" style="html=1;dropTarget=0;" vertex="1" parent="1">
          <mxGeometry x="270" y="360" width="180" height="90" as="geometry" />
        </mxCell>
        <mxCell id="ynbt10xVMZTp4YLYaHJ--8" value="" style="shape=module;jettyWidth=8;jettyHeight=4;" vertex="1" parent="ynbt10xVMZTp4YLYaHJ--7">
          <mxGeometry x="1" width="20" height="20" relative="1" as="geometry">
            <mxPoint x="-27" y="7" as="offset" />
          </mxGeometry>
        </mxCell>
        <mxCell id="ynbt10xVMZTp4YLYaHJ--9" value="«审批中心»&lt;br&gt;&lt;b&gt;Component&lt;/b&gt;" style="html=1;dropTarget=0;" vertex="1" parent="1">
          <mxGeometry x="630" y="360" width="180" height="90" as="geometry" />
        </mxCell>
        <mxCell id="ynbt10xVMZTp4YLYaHJ--10" value="" style="shape=module;jettyWidth=8;jettyHeight=4;" vertex="1" parent="ynbt10xVMZTp4YLYaHJ--9">
          <mxGeometry x="1" width="20" height="20" relative="1" as="geometry">
            <mxPoint x="-27" y="7" as="offset" />
          </mxGeometry>
        </mxCell>
        <mxCell id="ynbt10xVMZTp4YLYaHJ--11" value="" style="rounded=0;orthogonalLoop=1;jettySize=auto;html=1;endArrow=none;endFill=0;sketch=0;sourcePerimeterSpacing=0;targetPerimeterSpacing=0;exitX=1;exitY=0.5;exitDx=0;exitDy=0;" edge="1" target="ynbt10xVMZTp4YLYaHJ--13" parent="1" source="ynbt10xVMZTp4YLYaHJ--3">
          <mxGeometry relative="1" as="geometry">
            <mxPoint x="520" y="185" as="sourcePoint" />
          </mxGeometry>
        </mxCell>
        <mxCell id="ynbt10xVMZTp4YLYaHJ--12" value="" style="rounded=0;orthogonalLoop=1;jettySize=auto;html=1;endArrow=halfCircle;endFill=0;entryX=0.5;entryY=0.5;endSize=6;strokeWidth=1;sketch=0;exitX=0;exitY=0.5;exitDx=0;exitDy=0;" edge="1" target="ynbt10xVMZTp4YLYaHJ--13" parent="1" source="ynbt10xVMZTp4YLYaHJ--5">
          <mxGeometry relative="1" as="geometry">
            <mxPoint x="560" y="185" as="sourcePoint" />
          </mxGeometry>
        </mxCell>
        <mxCell id="ynbt10xVMZTp4YLYaHJ--13" value="" style="ellipse;whiteSpace=wrap;html=1;align=center;aspect=fixed;resizable=0;points=[];outlineConnect=0;sketch=0;" vertex="1" parent="1">
          <mxGeometry x="535" y="180" width="10" height="10" as="geometry" />
        </mxCell>
      </root>
    </mxGraphModel>
  </diagram>
</mxfile>
